<?xml version="1.0" encoding="UTF-8" standalone="no"?>
<!-- Created with Inkscape (http://www.inkscape.org/) -->

<svg
   version="1.1"
   id="svg2"
   width="800"
   height="800"
   viewBox="0 0 800 799.99999"
   sodipodi:docname="luatex.svg"
   inkscape:version="1.2.1 (9c6d41e410, 2022-07-14)"
   inkscape:export-filename="luatex.png"
   inkscape:export-xdpi="30.719999"
   inkscape:export-ydpi="30.719999"
   xmlns:inkscape="http://www.inkscape.org/namespaces/inkscape"
   xmlns:sodipodi="http://sodipodi.sourceforge.net/DTD/sodipodi-0.dtd"
   xmlns="http://www.w3.org/2000/svg"
   xmlns:svg="http://www.w3.org/2000/svg">
  <defs
     id="defs6" />
  <sodipodi:namedview
     id="namedview4"
     pagecolor="#ffffff"
     bordercolor="#000000"
     borderopacity="0.25"
     inkscape:showpageshadow="2"
     inkscape:pageopacity="0.0"
     inkscape:pagecheckerboard="0"
     inkscape:deskcolor="#d1d1d1"
     showgrid="false"
     inkscape:zoom="0.58914091"
     inkscape:cx="353.05645"
     inkscape:cy="654.34261"
     inkscape:window-width="3840"
     inkscape:window-height="1536"
     inkscape:window-x="0"
     inkscape:window-y="27"
     inkscape:window-maximized="0"
     inkscape:current-layer="g8" />
  <g
     inkscape:groupmode="layer"
     inkscape:label="Image"
     id="g8"
     transform="translate(204.42546,160.98137)">
    <path
       style="fill:#7f7f00;fill-opacity:1;fill-rule:nonzero;stroke:none;stroke-width:1.33333"
       d="m -204.42546,639.01863 c 266.661424,0 533.33336,0 800.00003,0 0,-266.66294 0,-533.33704 0,-800 -266.66667,0 -533.338606,0 -800.00003,0 0,266.66296 0,533.33706 0,800 z m 0,0"
       id="path527"
       inkscape:label="Background" />
    <g
       id="g928"
       transform="matrix(3.013956,0,0,3.013956,-701.54345,211.12775)"
       inkscape:label="LuaTeX"
       style="display:none;stroke-width:0.442386">
      <path
         style="fill:#ffffff;fill-opacity:1;stroke:none;stroke-width:0.442386"
         d="M 2.375,0 V -2.984375 H 7.078125 V -33.84375 H 2.375 v -2.984375 h 18.9375 v 2.984375 H 16.578125 V -3.375 h 14.5 V -9.203125 H 34.40625 V 0 Z m 0,0"
         id="path897"
         transform="translate(195.69579,90.089117)"
         inkscape:label="L" />
      <path
         style="fill:#ffffff;fill-opacity:1;stroke:none;stroke-width:0.442386"
         d="M 31.28125,-26.21875 V -2.984375 H 35 V 0 H 22.515625 v -3.703125 c -1.03125,1.5625 -2.226563,2.695313 -3.578125,3.390625 -1.34375,0.6875 -3.042969,1.03125 -5.09375,1.03125 -2.949219,0 -5.179688,-0.863281 -6.6875,-2.59375 -1.5,-1.738281 -2.25,-4.296875 -2.25,-7.671875 v -13.6875 h -3.75 v -2.984375 h 12.484375 v 15.3125 c 0,3.261719 0.269531,5.335938 0.8125,6.21875 0.539063,0.875 1.535156,1.3125 2.984375,1.3125 1.757812,0 3.046875,-0.648438 3.859375,-1.953125 0.8125,-1.300781 1.21875,-3.363281 1.21875,-6.1875 v -11.71875 H 19.34375 v -2.984375 z m 0,0"
         id="path901"
         transform="translate(231.2002,90.089117)"
         inkscape:label="u" />
      <path
         style="fill:#ffffff;fill-opacity:1;stroke:none;stroke-width:0.442386"
         d="m 27.828125,-16.109375 v 13.125 h 3.75 V 0 H 19.09375 v -3.328125 c -1.15625,1.375 -2.445312,2.398437 -3.859375,3.0625 C 13.828125,0.390625 12.21875,0.71875 10.40625,0.71875 7.726562,0.71875 5.671875,0 4.234375,-1.4375 c -1.4375,-1.4375 -2.15625,-3.5 -2.15625,-6.1875 0,-2.9375 1.03125,-5.132812 3.09375,-6.59375 2.0625,-1.46875 5.171875,-2.203125 9.328125,-2.203125 h 4.59375 v -1.5625 c 0,-2.113281 -0.507812,-3.675781 -1.515625,-4.6875 -1,-1.019531 -2.554687,-1.53125 -4.65625,-1.53125 -1.742187,0 -3.085937,0.359375 -4.03125,1.078125 -0.949219,0.71875 -1.621094,1.890625 -2.015625,3.515625 H 4.09375 v -5.65625 c 1.5625,-0.550781 3.179688,-0.96875 4.859375,-1.25 1.675781,-0.28125 3.441406,-0.421875 5.296875,-0.421875 4.6875,0 8.117188,0.875 10.296875,2.625 2.1875,1.742188 3.28125,4.476562 3.28125,8.203125 z m -8.734375,7.875 V -13.5 H 15.8125 c -1.625,0 -2.875,0.449219 -3.75,1.34375 -0.875,0.886719 -1.3125,2.15625 -1.3125,3.8125 0,1.667969 0.316406,2.914062 0.953125,3.734375 0.632813,0.824219 1.601563,1.234375 2.90625,1.234375 1.34375,0 2.425781,-0.441406 3.25,-1.328125 0.820313,-0.894531 1.234375,-2.070313 1.234375,-3.53125 z m 0,0"
         id="path905"
         transform="translate(267.91687,90.089117)"
         inkscape:label="a" />
      <path
         style="fill:#ffffff;fill-opacity:1;stroke:none;stroke-width:0.442386"
         d="m 9.15625,0 v -2.984375 h 4.875 v -30.46875 H 3.953125 V -27.625 H 0.5625 v -9.203125 H 37.078125 V -27.625 H 33.75 v -5.828125 H 23.578125 v 30.46875 h 4.90625 V 0 Z m 0,0"
         id="path909"
         transform="translate(300.63812,90.089117)"
         inkscape:label="T" />
      <path
         style="fill:#ffffff;fill-opacity:1;stroke:none;stroke-width:0.442386"
         d="M 2.375,0 V -2.984375 H 7.078125 V -33.84375 H 2.375 v -2.984375 h 33.09375 v 8.6875 H 32.0625 v -5.3125 H 16.578125 V -21.625 h 9.640625 v -4.6875 h 3.375 v 12.71875 h -3.375 v -4.6875 H 16.578125 V -3.375 H 32.53125 v -5.3125 h 3.375 V 0 Z m 0,0"
         id="path893"
         transform="translate(328.89661,103.19447)"
         inkscape:label="E" />
      <path
         style="fill:#ffffff;fill-opacity:1;stroke:none;stroke-width:0.442386"
         d="M 17.125,-14.1875 9.453125,-2.984375 h 4.53125 V 0 H 0.90625 V -2.984375 H 5.453125 L 15.140625,-17.0625 3.625,-33.84375 H 0.25 v -2.984375 h 18.296875 v 2.984375 H 14.5 l 7.125,10.359375 7.0625,-10.359375 h -4.296875 v -2.984375 H 37.21875 v 2.984375 H 32.6875 l -9.109375,13.21875 12.09375,17.640625 h 3.46875 V 0 h -18.375 v -2.984375 h 4.09375 z m 0,0"
         id="path889"
         transform="translate(360.39938,90.089117)"
         inkscape:label="X" />
    </g>
    <g
       id="g1063"
       transform="matrix(0.3810003,0,0,0.38100028,15.170505,-78.963928)"
       style="stroke-width:2.62467"
       inkscape:label="Lua logo">
      <path
         fill="#000080"
         d="m 835.5,473.6 c 0,-199.8 -162.2,-362 -362,-362 -199.8,0 -362,162.2 -362,362 0,199.8 162.2,362 362,362 199.8,0 362,-162.2 362,-362"
         id="path1047"
         style="stroke-width:6.72611"
         inkscape:label="big circle" />
      <path
         fill="#ffffff"
         d="m 729.5,323.6 c 0,-58.5 -47.5,-106 -106,-106 -58.5,0 -106,47.5 -106,106 0,58.5 47.5,106 106,106 58.5,0 106,-47.5 106,-106"
         id="path1049"
         style="stroke-width:6.72611"
         inkscape:label="small white circle" />
      <path
         fill="#000080"
         d="m 941.5,111.5 c 0,-58.5 -47.5,-106 -106,-106 -58.5,0 -106,47.5 -106,106 0,58.5 47.5,106 106,106 58.5,0 106,-47.4 106,-106"
         id="path1051"
         style="stroke-width:6.72611"
         inkscape:label="small blue circle" />
      <path
         fill="none"
         stroke="#808080"
         stroke-width="28.5071"
         stroke-miterlimit="10"
         stroke-dasharray="40.8475"
         d="m 890.6,261 c 33.5,65.8 51,138.6 51,212.5 0,258.4 -209.7,468.1 -468.1,468.1 C 215.1,941.6 5.4,731.9 5.4,473.5 5.4,215.1 215.1,5.4 473.5,5.4 c 83.1,0 164.6,22.1 236.2,63.9"
         id="path1061"
         inkscape:label="orbit"
         style="stroke:#ffffff" />
    </g>
    <g
       id="g1552"
       transform="matrix(2.103006,0,0,2.103006,-327.61738,-17.871945)"
       inkscape:label="Lua"
       style="stroke-width:0.634012">
      <path
         style="fill:#ffffff;fill-opacity:1;stroke:none;stroke-width:0.634012"
         d="M 2.375,0 V -2.984375 H 7.078125 V -33.84375 H 2.375 v -2.984375 h 18.9375 v 2.984375 H 16.578125 V -3.375 h 14.5 V -9.203125 H 34.40625 V 0 Z m 0,0"
         id="path1540"
         transform="translate(195.69579,90.089117)"
         inkscape:label="L" />
      <path
         style="fill:#ffffff;fill-opacity:1;stroke:none;stroke-width:0.634012"
         d="M 31.28125,-26.21875 V -2.984375 H 35 V 0 H 22.515625 v -3.703125 c -1.03125,1.5625 -2.226563,2.695313 -3.578125,3.390625 -1.34375,0.6875 -3.042969,1.03125 -5.09375,1.03125 -2.949219,0 -5.179688,-0.863281 -6.6875,-2.59375 -1.5,-1.738281 -2.25,-4.296875 -2.25,-7.671875 v -13.6875 h -3.75 v -2.984375 h 12.484375 v 15.3125 c 0,3.261719 0.269531,5.335938 0.8125,6.21875 0.539063,0.875 1.535156,1.3125 2.984375,1.3125 1.757812,0 3.046875,-0.648438 3.859375,-1.953125 0.8125,-1.300781 1.21875,-3.363281 1.21875,-6.1875 v -11.71875 H 19.34375 v -2.984375 z m 0,0"
         id="path1542"
         transform="translate(231.2002,90.089117)"
         inkscape:label="u" />
      <path
         style="fill:#ffffff;fill-opacity:1;stroke:none;stroke-width:0.634012"
         d="m 27.828125,-16.109375 v 13.125 h 3.75 V 0 H 19.09375 v -3.328125 c -1.15625,1.375 -2.445312,2.398437 -3.859375,3.0625 C 13.828125,0.390625 12.21875,0.71875 10.40625,0.71875 7.726562,0.71875 5.671875,0 4.234375,-1.4375 c -1.4375,-1.4375 -2.15625,-3.5 -2.15625,-6.1875 0,-2.9375 1.03125,-5.132812 3.09375,-6.59375 2.0625,-1.46875 5.171875,-2.203125 9.328125,-2.203125 h 4.59375 v -1.5625 c 0,-2.113281 -0.507812,-3.675781 -1.515625,-4.6875 -1,-1.019531 -2.554687,-1.53125 -4.65625,-1.53125 -1.742187,0 -3.085937,0.359375 -4.03125,1.078125 -0.949219,0.71875 -1.621094,1.890625 -2.015625,3.515625 H 4.09375 v -5.65625 c 1.5625,-0.550781 3.179688,-0.96875 4.859375,-1.25 1.675781,-0.28125 3.441406,-0.421875 5.296875,-0.421875 4.6875,0 8.117188,0.875 10.296875,2.625 2.1875,1.742188 3.28125,4.476562 3.28125,8.203125 z m -8.734375,7.875 V -13.5 H 15.8125 c -1.625,0 -2.875,0.449219 -3.75,1.34375 -0.875,0.886719 -1.3125,2.15625 -1.3125,3.8125 0,1.667969 0.316406,2.914062 0.953125,3.734375 0.632813,0.824219 1.601563,1.234375 2.90625,1.234375 1.34375,0 2.425781,-0.441406 3.25,-1.328125 0.820313,-0.894531 1.234375,-2.070313 1.234375,-3.53125 z m 0,0"
         id="path1544"
         transform="translate(267.91687,90.089117)"
         inkscape:label="a" />
    </g>
    <g
       id="g1566"
       transform="matrix(5.2051333,0,0,5.2051333,-1628.1496,36.274346)"
       inkscape:label="TeX"
       style="stroke-width:0.256157">
      <path
         style="fill:#ffffff;fill-opacity:1;stroke:none;stroke-width:0.256157"
         d="m 9.15625,0 v -2.984375 h 4.875 v -30.46875 H 3.953125 V -27.625 H 0.5625 v -9.203125 H 37.078125 V -27.625 H 33.75 v -5.828125 H 23.578125 v 30.46875 h 4.90625 V 0 Z m 0,0"
         id="path1560"
         transform="translate(300.63812,90.089117)"
         inkscape:label="T" />
      <path
         style="fill:#ffffff;fill-opacity:1;stroke:none;stroke-width:0.256157"
         d="M 2.375,0 V -2.984375 H 7.078125 V -33.84375 H 2.375 v -2.984375 h 33.09375 v 8.6875 H 32.0625 v -5.3125 H 16.578125 V -21.625 h 9.640625 v -4.6875 h 3.375 v 12.71875 h -3.375 v -4.6875 H 16.578125 V -3.375 H 32.53125 v -5.3125 h 3.375 V 0 Z m 0,0"
         id="path1562"
         transform="translate(328.89661,103.19447)"
         inkscape:label="E" />
      <path
         style="fill:#ffffff;fill-opacity:1;stroke:none;stroke-width:0.256157"
         d="M 17.125,-14.1875 9.453125,-2.984375 h 4.53125 V 0 H 0.90625 V -2.984375 H 5.453125 L 15.140625,-17.0625 3.625,-33.84375 H 0.25 v -2.984375 h 18.296875 v 2.984375 H 14.5 l 7.125,10.359375 7.0625,-10.359375 h -4.296875 v -2.984375 H 37.21875 v 2.984375 H 32.6875 l -9.109375,13.21875 12.09375,17.640625 h 3.46875 V 0 h -18.375 v -2.984375 h 4.09375 z m 0,0"
         id="path1564"
         transform="translate(360.39938,90.089117)"
         inkscape:label="X" />
    </g>
  </g>
</svg>
